ISO-10303-21;
HEADER;
/* Generated by software containing ST-Developer
 * from STEP Tools, Inc. (www.steptools.com) 
 */

FILE_DESCRIPTION(
/* description */ (''),
/* implementation_level */ '2;1');

FILE_NAME(
/* name */ 'battery-cover.step',
/* time_stamp */ '2026-04-08T16:32:09+03:00',
/* author */ (''),
/* organization */ (''),
/* preprocessor_version */ 'ST-DEVELOPER v20.1',
/* originating_system */ 'Autodesk Translation Framework v14.24.0.0',
/* authorisation */ '');

FILE_SCHEMA (('AUTOMOTIVE_DESIGN { 1 0 10303 214 3 1 1 }'));
ENDSEC;

DATA;
#10=MECHANICAL_DESIGN_GEOMETRIC_PRESENTATION_REPRESENTATION('',(#13),#389);
#11=SHAPE_REPRESENTATION_RELATIONSHIP('SRR','None',#395,#12);
#12=ADVANCED_BREP_SHAPE_REPRESENTATION('',(#14),#388);
#13=STYLED_ITEM('',(#415),#14);
#14=MANIFOLD_SOLID_BREP('COVER blank',#229);
#15=CYLINDRICAL_SURFACE('',#242,3.);
#16=CYLINDRICAL_SURFACE('',#249,3.);
#17=CYLINDRICAL_SURFACE('',#252,3.);
#18=CYLINDRICAL_SURFACE('',#254,3.);
#19=FACE_BOUND('',#43,.T.);
#20=FACE_BOUND('',#44,.T.);
#21=FACE_BOUND('',#49,.T.);
#22=FACE_BOUND('',#50,.T.);
#23=PLANE('',#234);
#24=PLANE('',#244);
#25=PLANE('',#245);
#26=PLANE('',#250);
#27=PLANE('',#251);
#28=PLANE('',#253);
#29=FACE_OUTER_BOUND('',#41,.T.);
#30=FACE_OUTER_BOUND('',#42,.T.);
#31=FACE_OUTER_BOUND('',#45,.T.);
#32=FACE_OUTER_BOUND('',#46,.T.);
#33=FACE_OUTER_BOUND('',#47,.T.);
#34=FACE_OUTER_BOUND('',#48,.T.);
#35=FACE_OUTER_BOUND('',#51,.T.);
#36=FACE_OUTER_BOUND('',#52,.T.);
#37=FACE_OUTER_BOUND('',#53,.T.);
#38=FACE_OUTER_BOUND('',#54,.T.);
#39=FACE_OUTER_BOUND('',#55,.T.);
#40=FACE_OUTER_BOUND('',#56,.T.);
#41=EDGE_LOOP('',(#155,#156,#157,#158));
#42=EDGE_LOOP('',(#159,#160,#161,#162,#163,#164,#165,#166));
#43=EDGE_LOOP('',(#167));
#44=EDGE_LOOP('',(#168));
#45=EDGE_LOOP('',(#169,#170,#171,#172));
#46=EDGE_LOOP('',(#173,#174,#175,#176));
#47=EDGE_LOOP('',(#177,#178,#179,#180));
#48=EDGE_LOOP('',(#181,#182,#183,#184,#185,#186,#187,#188));
#49=EDGE_LOOP('',(#189));
#50=EDGE_LOOP('',(#190));
#51=EDGE_LOOP('',(#191,#192,#193,#194));
#52=EDGE_LOOP('',(#195,#196,#197,#198));
#53=EDGE_LOOP('',(#199,#200,#201,#202));
#54=EDGE_LOOP('',(#203,#204,#205,#206));
#55=EDGE_LOOP('',(#207,#208,#209,#210));
#56=EDGE_LOOP('',(#211,#212,#213,#214));
#57=LINE('',#328,#75);
#58=LINE('',#335,#76);
#59=LINE('',#339,#77);
#60=LINE('',#343,#78);
#61=LINE('',#346,#79);
#62=LINE('',#351,#80);
#63=LINE('',#357,#81);
#64=LINE('',#358,#82);
#65=LINE('',#361,#83);
#66=LINE('',#362,#84);
#67=LINE('',#365,#85);
#68=LINE('',#369,#86);
#69=LINE('',#373,#87);
#70=LINE('',#376,#88);
#71=LINE('',#378,#89);
#72=LINE('',#380,#90);
#73=LINE('',#382,#91);
#74=LINE('',#384,#92);
#75=VECTOR('',#261,1.5);
#76=VECTOR('',#268,10.);
#77=VECTOR('',#271,10.);
#78=VECTOR('',#274,10.);
#79=VECTOR('',#277,10.);
#80=VECTOR('',#282,1.5);
#81=VECTOR('',#289,10.);
#82=VECTOR('',#290,10.);
#83=VECTOR('',#293,10.);
#84=VECTOR('',#294,10.);
#85=VECTOR('',#297,10.);
#86=VECTOR('',#300,10.);
#87=VECTOR('',#303,10.);
#88=VECTOR('',#308,10.);
#89=VECTOR('',#311,10.);
#90=VECTOR('',#314,10.);
#91=VECTOR('',#317,10.);
#92=VECTOR('',#320,10.);
#93=CIRCLE('',#232,2.14142135623731);
#94=CIRCLE('',#233,1.14142135623731);
#95=CIRCLE('',#235,3.);
#96=CIRCLE('',#236,3.);
#97=CIRCLE('',#237,3.);
#98=CIRCLE('',#238,3.);
#99=CIRCLE('',#239,2.14142135623731);
#100=CIRCLE('',#241,1.14142135623731);
#101=CIRCLE('',#243,3.);
#102=CIRCLE('',#246,3.);
#103=CIRCLE('',#247,3.);
#104=CIRCLE('',#248,3.);
#105=VERTEX_POINT('',#325);
#106=VERTEX_POINT('',#327);
#107=VERTEX_POINT('',#331);
#108=VERTEX_POINT('',#332);
#109=VERTEX_POINT('',#334);
#110=VERTEX_POINT('',#336);
#111=VERTEX_POINT('',#338);
#112=VERTEX_POINT('',#340);
#113=VERTEX_POINT('',#342);
#114=VERTEX_POINT('',#344);
#115=VERTEX_POINT('',#347);
#116=VERTEX_POINT('',#350);
#117=VERTEX_POINT('',#354);
#118=VERTEX_POINT('',#355);
#119=VERTEX_POINT('',#360);
#120=VERTEX_POINT('',#364);
#121=VERTEX_POINT('',#366);
#122=VERTEX_POINT('',#368);
#123=VERTEX_POINT('',#370);
#124=VERTEX_POINT('',#372);
#125=EDGE_CURVE('',#105,#105,#93,.T.);
#126=EDGE_CURVE('',#105,#106,#57,.T.);
#127=EDGE_CURVE('',#106,#106,#94,.T.);
#128=EDGE_CURVE('',#107,#108,#95,.T.);
#129=EDGE_CURVE('',#109,#107,#58,.T.);
#130=EDGE_CURVE('',#110,#109,#96,.T.);
#131=EDGE_CURVE('',#111,#110,#59,.T.);
#132=EDGE_CURVE('',#112,#111,#97,.T.);
#133=EDGE_CURVE('',#112,#113,#60,.F.);
#134=EDGE_CURVE('',#114,#113,#98,.T.);
#135=EDGE_CURVE('',#114,#108,#61,.F.);
#136=EDGE_CURVE('',#115,#115,#99,.T.);
#137=EDGE_CURVE('',#115,#116,#62,.T.);
#138=EDGE_CURVE('',#116,#116,#100,.T.);
#139=EDGE_CURVE('',#117,#118,#101,.T.);
#140=EDGE_CURVE('',#118,#107,#63,.T.);
#141=EDGE_CURVE('',#108,#117,#64,.T.);
#142=EDGE_CURVE('',#119,#118,#65,.T.);
#143=EDGE_CURVE('',#109,#119,#66,.T.);
#144=EDGE_CURVE('',#117,#120,#67,.T.);
#145=EDGE_CURVE('',#121,#120,#102,.T.);
#146=EDGE_CURVE('',#121,#122,#68,.T.);
#147=EDGE_CURVE('',#123,#122,#103,.T.);
#148=EDGE_CURVE('',#123,#124,#69,.T.);
#149=EDGE_CURVE('',#119,#124,#104,.T.);
#150=EDGE_CURVE('',#124,#110,#70,.T.);
#151=EDGE_CURVE('',#111,#123,#71,.T.);
#152=EDGE_CURVE('',#120,#114,#72,.T.);
#153=EDGE_CURVE('',#122,#112,#73,.T.);
#154=EDGE_CURVE('',#113,#121,#74,.T.);
#155=ORIENTED_EDGE('',*,*,#125,.T.);
#156=ORIENTED_EDGE('',*,*,#126,.T.);
#157=ORIENTED_EDGE('',*,*,#127,.F.);
#158=ORIENTED_EDGE('',*,*,#126,.F.);
#159=ORIENTED_EDGE('',*,*,#128,.F.);
#160=ORIENTED_EDGE('',*,*,#129,.F.);
#161=ORIENTED_EDGE('',*,*,#130,.F.);
#162=ORIENTED_EDGE('',*,*,#131,.F.);
#163=ORIENTED_EDGE('',*,*,#132,.F.);
#164=ORIENTED_EDGE('',*,*,#133,.T.);
#165=ORIENTED_EDGE('',*,*,#134,.F.);
#166=ORIENTED_EDGE('',*,*,#135,.T.);
#167=ORIENTED_EDGE('',*,*,#136,.F.);
#168=ORIENTED_EDGE('',*,*,#125,.F.);
#169=ORIENTED_EDGE('',*,*,#136,.T.);
#170=ORIENTED_EDGE('',*,*,#137,.T.);
#171=ORIENTED_EDGE('',*,*,#138,.F.);
#172=ORIENTED_EDGE('',*,*,#137,.F.);
#173=ORIENTED_EDGE('',*,*,#139,.T.);
#174=ORIENTED_EDGE('',*,*,#140,.T.);
#175=ORIENTED_EDGE('',*,*,#128,.T.);
#176=ORIENTED_EDGE('',*,*,#141,.T.);
#177=ORIENTED_EDGE('',*,*,#140,.F.);
#178=ORIENTED_EDGE('',*,*,#142,.F.);
#179=ORIENTED_EDGE('',*,*,#143,.F.);
#180=ORIENTED_EDGE('',*,*,#129,.T.);
#181=ORIENTED_EDGE('',*,*,#139,.F.);
#182=ORIENTED_EDGE('',*,*,#144,.T.);
#183=ORIENTED_EDGE('',*,*,#145,.F.);
#184=ORIENTED_EDGE('',*,*,#146,.T.);
#185=ORIENTED_EDGE('',*,*,#147,.F.);
#186=ORIENTED_EDGE('',*,*,#148,.T.);
#187=ORIENTED_EDGE('',*,*,#149,.F.);
#188=ORIENTED_EDGE('',*,*,#142,.T.);
#189=ORIENTED_EDGE('',*,*,#127,.T.);
#190=ORIENTED_EDGE('',*,*,#138,.T.);
#191=ORIENTED_EDGE('',*,*,#130,.T.);
#192=ORIENTED_EDGE('',*,*,#143,.T.);
#193=ORIENTED_EDGE('',*,*,#149,.T.);
#194=ORIENTED_EDGE('',*,*,#150,.T.);
#195=ORIENTED_EDGE('',*,*,#150,.F.);
#196=ORIENTED_EDGE('',*,*,#148,.F.);
#197=ORIENTED_EDGE('',*,*,#151,.F.);
#198=ORIENTED_EDGE('',*,*,#131,.T.);
#199=ORIENTED_EDGE('',*,*,#141,.F.);
#200=ORIENTED_EDGE('',*,*,#135,.F.);
#201=ORIENTED_EDGE('',*,*,#152,.F.);
#202=ORIENTED_EDGE('',*,*,#144,.F.);
#203=ORIENTED_EDGE('',*,*,#147,.T.);
#204=ORIENTED_EDGE('',*,*,#153,.T.);
#205=ORIENTED_EDGE('',*,*,#132,.T.);
#206=ORIENTED_EDGE('',*,*,#151,.T.);
#207=ORIENTED_EDGE('',*,*,#153,.F.);
#208=ORIENTED_EDGE('',*,*,#146,.F.);
#209=ORIENTED_EDGE('',*,*,#154,.F.);
#210=ORIENTED_EDGE('',*,*,#133,.F.);
#211=ORIENTED_EDGE('',*,*,#134,.T.);
#212=ORIENTED_EDGE('',*,*,#154,.T.);
#213=ORIENTED_EDGE('',*,*,#145,.T.);
#214=ORIENTED_EDGE('',*,*,#152,.T.);
#215=CONICAL_SURFACE('',#231,1.57071067811866,0.785398163397448);
#216=CONICAL_SURFACE('',#240,1.57071067811866,0.78539816339745);
#217=ADVANCED_FACE('',(#29),#215,.F.);
#218=ADVANCED_FACE('',(#30,#19,#20),#23,.T.);
#219=ADVANCED_FACE('',(#31),#216,.F.);
#220=ADVANCED_FACE('',(#32),#15,.T.);
#221=ADVANCED_FACE('',(#33),#24,.T.);
#222=ADVANCED_FACE('',(#34,#21,#22),#25,.F.);
#223=ADVANCED_FACE('',(#35),#16,.T.);
#224=ADVANCED_FACE('',(#36),#26,.T.);
#225=ADVANCED_FACE('',(#37),#27,.T.);
#226=ADVANCED_FACE('',(#38),#17,.T.);
#227=ADVANCED_FACE('',(#39),#28,.T.);
#228=ADVANCED_FACE('',(#40),#18,.T.);
#229=CLOSED_SHELL('',(#217,#218,#219,#220,#221,#222,#223,#224,#225,#226,
#227,#228));
#230=AXIS2_PLACEMENT_3D('',#323,#255,#256);
#231=AXIS2_PLACEMENT_3D('',#324,#257,#258);
#232=AXIS2_PLACEMENT_3D('',#326,#259,#260);
#233=AXIS2_PLACEMENT_3D('',#329,#262,#263);
#234=AXIS2_PLACEMENT_3D('',#330,#264,#265);
#235=AXIS2_PLACEMENT_3D('',#333,#266,#267);
#236=AXIS2_PLACEMENT_3D('',#337,#269,#270);
#237=AXIS2_PLACEMENT_3D('',#341,#272,#273);
#238=AXIS2_PLACEMENT_3D('',#345,#275,#276);
#239=AXIS2_PLACEMENT_3D('',#348,#278,#279);
#240=AXIS2_PLACEMENT_3D('',#349,#280,#281);
#241=AXIS2_PLACEMENT_3D('',#352,#283,#284);
#242=AXIS2_PLACEMENT_3D('',#353,#285,#286);
#243=AXIS2_PLACEMENT_3D('',#356,#287,#288);
#244=AXIS2_PLACEMENT_3D('',#359,#291,#292);
#245=AXIS2_PLACEMENT_3D('',#363,#295,#296);
#246=AXIS2_PLACEMENT_3D('',#367,#298,#299);
#247=AXIS2_PLACEMENT_3D('',#371,#301,#302);
#248=AXIS2_PLACEMENT_3D('',#374,#304,#305);
#249=AXIS2_PLACEMENT_3D('',#375,#306,#307);
#250=AXIS2_PLACEMENT_3D('',#377,#309,#310);
#251=AXIS2_PLACEMENT_3D('',#379,#312,#313);
#252=AXIS2_PLACEMENT_3D('',#381,#315,#316);
#253=AXIS2_PLACEMENT_3D('',#383,#318,#319);
#254=AXIS2_PLACEMENT_3D('',#385,#321,#322);
#255=DIRECTION('axis',(0.,0.,1.));
#256=DIRECTION('refdir',(1.,0.,0.));
#257=DIRECTION('center_axis',(0.,0.,1.));
#258=DIRECTION('ref_axis',(-1.,0.,0.));
#259=DIRECTION('center_axis',(0.,0.,1.));
#260=DIRECTION('ref_axis',(-1.,0.,0.));
#261=DIRECTION('',(-0.707106781186547,-8.65956056235493E-17,-0.707106781186547));
#262=DIRECTION('center_axis',(0.,0.,1.));
#263=DIRECTION('ref_axis',(-1.,0.,0.));
#264=DIRECTION('center_axis',(0.,0.,1.));
#265=DIRECTION('ref_axis',(-1.,0.,0.));
#266=DIRECTION('center_axis',(0.,0.,-1.));
#267=DIRECTION('ref_axis',(0.707106781186545,-0.70710678118655,0.));
#268=DIRECTION('',(0.,-1.,0.));
#269=DIRECTION('center_axis',(0.,0.,-1.));
#270=DIRECTION('ref_axis',(0.707106781186548,0.707106781186547,0.));
#271=DIRECTION('',(1.,-7.04903507698512E-17,0.));
#272=DIRECTION('center_axis',(0.,0.,-1.));
#273=DIRECTION('ref_axis',(-0.707106781186547,0.707106781186548,0.));
#274=DIRECTION('',(-1.79975364102452E-16,1.,0.));
#275=DIRECTION('center_axis',(0.,0.,-1.));
#276=DIRECTION('ref_axis',(-0.707106781186547,-0.707106781186548,0.));
#277=DIRECTION('',(-1.,2.76214962691557E-16,0.));
#278=DIRECTION('center_axis',(0.,0.,1.));
#279=DIRECTION('ref_axis',(-1.,0.,0.));
#280=DIRECTION('center_axis',(0.,0.,1.));
#281=DIRECTION('ref_axis',(-1.,0.,0.));
#282=DIRECTION('',(-0.707106781186549,-8.65956056235495E-17,-0.707106781186546));
#283=DIRECTION('center_axis',(0.,0.,1.));
#284=DIRECTION('ref_axis',(-1.,0.,0.));
#285=DIRECTION('center_axis',(0.,0.,-1.));
#286=DIRECTION('ref_axis',(0.707106781186545,-0.70710678118655,0.));
#287=DIRECTION('center_axis',(0.,0.,1.));
#288=DIRECTION('ref_axis',(0.707106781186545,-0.70710678118655,0.));
#289=DIRECTION('',(0.,0.,1.));
#290=DIRECTION('',(0.,0.,-1.));
#291=DIRECTION('center_axis',(1.,0.,0.));
#292=DIRECTION('ref_axis',(0.,1.,0.));
#293=DIRECTION('',(0.,-1.,0.));
#294=DIRECTION('',(0.,0.,-1.));
#295=DIRECTION('center_axis',(0.,0.,1.));
#296=DIRECTION('ref_axis',(-1.,0.,0.));
#297=DIRECTION('',(-1.,2.76214962691557E-16,0.));
#298=DIRECTION('center_axis',(0.,0.,1.));
#299=DIRECTION('ref_axis',(-0.707106781186547,-0.707106781186548,0.));
#300=DIRECTION('',(-1.79975364102452E-16,1.,0.));
#301=DIRECTION('center_axis',(0.,0.,1.));
#302=DIRECTION('ref_axis',(-0.707106781186547,0.707106781186548,0.));
#303=DIRECTION('',(1.,-7.04903507698512E-17,0.));
#304=DIRECTION('center_axis',(0.,0.,1.));
#305=DIRECTION('ref_axis',(0.707106781186548,0.707106781186547,0.));
#306=DIRECTION('center_axis',(0.,0.,1.));
#307=DIRECTION('ref_axis',(0.707106781186548,0.707106781186547,0.));
#308=DIRECTION('',(0.,0.,1.));
#309=DIRECTION('center_axis',(7.04903507698512E-17,1.,0.));
#310=DIRECTION('ref_axis',(-1.,7.04903507698512E-17,0.));
#311=DIRECTION('',(0.,0.,-1.));
#312=DIRECTION('center_axis',(-2.76214962691557E-16,-1.,0.));
#313=DIRECTION('ref_axis',(1.,-2.76214962691557E-16,0.));
#314=DIRECTION('',(0.,0.,1.));
#315=DIRECTION('center_axis',(0.,0.,-1.));
#316=DIRECTION('ref_axis',(-0.707106781186547,0.707106781186548,0.));
#317=DIRECTION('',(0.,0.,1.));
#318=DIRECTION('center_axis',(-1.,-1.79975364102452E-16,0.));
#319=DIRECTION('ref_axis',(1.79975364102452E-16,-1.,0.));
#320=DIRECTION('',(0.,0.,-1.));
#321=DIRECTION('center_axis',(0.,0.,1.));
#322=DIRECTION('ref_axis',(-0.707106781186547,-0.707106781186548,0.));
#323=CARTESIAN_POINT('',(0.,0.,0.));
#324=CARTESIAN_POINT('Origin',(74.5050000000001,-16.8375000298023,42.8292883696972));
#325=CARTESIAN_POINT('',(76.6464213562374,-16.8375000298023,43.3999990478158));
#326=CARTESIAN_POINT('Origin',(74.5050000000001,-16.8375000298023,43.3999990478158));
#327=CARTESIAN_POINT('',(75.6464213562374,-16.8375000298023,42.3999990478158));
#328=CARTESIAN_POINT('',(76.0757106781187,-16.8375000298023,42.8292883696972));
#329=CARTESIAN_POINT('Origin',(74.5050000000001,-16.8375000298023,42.3999990478158));
#330=CARTESIAN_POINT('Origin',(128.5875,-45.125,43.3999990478158));
#331=CARTESIAN_POINT('',(79.3550000000001,-26.025,43.3999990478158));
#332=CARTESIAN_POINT('',(76.3550000000001,-29.025,43.3999990478158));
#333=CARTESIAN_POINT('Origin',(76.3550000000001,-26.025,43.3999990478158));
#334=CARTESIAN_POINT('',(79.3550000000001,-7.65000005960466,43.3999990478158));
#335=CARTESIAN_POINT('',(79.3550000000001,-34.15,43.3999990478158));
#336=CARTESIAN_POINT('',(76.3550000000001,-4.65000005960465,43.3999990478158));
#337=CARTESIAN_POINT('Origin',(76.3550000000001,-7.65000005960465,43.3999990478158));
#338=CARTESIAN_POINT('',(9.65500000000006,-4.65000005960465,43.3999990478158));
#339=CARTESIAN_POINT('',(70.79625,-4.65000005960465,43.3999990478158));
#340=CARTESIAN_POINT('',(6.65500000000007,-7.65000005960465,43.3999990478158));
#341=CARTESIAN_POINT('Origin',(9.65500000000006,-7.65000005960465,43.3999990478158));
#342=CARTESIAN_POINT('',(6.65500000000007,-26.025,43.3999990478158));
#343=CARTESIAN_POINT('',(6.65500000000007,-26.3125000298023,43.3999990478158));
#344=CARTESIAN_POINT('',(9.65500000000007,-29.025,43.3999990478158));
#345=CARTESIAN_POINT('Origin',(9.65500000000007,-26.025,43.3999990478158));
#346=CARTESIAN_POINT('',(69.04625,-29.025,43.3999990478158));
#347=CARTESIAN_POINT('',(13.6464213562374,-16.8375000298023,43.3999990478158));
#348=CARTESIAN_POINT('Origin',(11.5050000000001,-16.8375000298023,43.3999990478158));
#349=CARTESIAN_POINT('Origin',(11.5050000000001,-16.8375000298023,42.8292883696972));
#350=CARTESIAN_POINT('',(12.6464213562374,-16.8375000298023,42.3999990478158));
#351=CARTESIAN_POINT('',(13.0757106781187,-16.8375000298023,42.8292883696972));
#352=CARTESIAN_POINT('Origin',(11.5050000000001,-16.8375000298023,42.3999990478158));
#353=CARTESIAN_POINT('Origin',(76.3550000000001,-26.025,42.3999990478158));
#354=CARTESIAN_POINT('',(76.3550000000001,-29.025,42.3999990478158));
#355=CARTESIAN_POINT('',(79.3550000000001,-26.025,42.3999990478158));
#356=CARTESIAN_POINT('Origin',(76.3550000000001,-26.025,42.3999990478158));
#357=CARTESIAN_POINT('',(79.3550000000001,-26.025,42.3999990478158));
#358=CARTESIAN_POINT('',(76.3550000000001,-29.025,42.3999990478158));
#359=CARTESIAN_POINT('Origin',(79.3550000000001,-23.1749999999999,42.3999990478158));
#360=CARTESIAN_POINT('',(79.3550000000001,-7.65000005960466,42.3999990478158));
#361=CARTESIAN_POINT('',(79.3550000000001,-34.15,42.3999990478158));
#362=CARTESIAN_POINT('',(79.3550000000001,-7.65000005960465,42.3999990478158));
#363=CARTESIAN_POINT('Origin',(128.5875,-45.125,42.3999990478158));
#364=CARTESIAN_POINT('',(9.65500000000007,-29.025,42.3999990478158));
#365=CARTESIAN_POINT('',(69.04625,-29.025,42.3999990478158));
#366=CARTESIAN_POINT('',(6.65500000000007,-26.025,42.3999990478158));
#367=CARTESIAN_POINT('Origin',(9.65500000000007,-26.025,42.3999990478158));
#368=CARTESIAN_POINT('',(6.65500000000007,-7.65000005960465,42.3999990478158));
#369=CARTESIAN_POINT('',(6.65500000000007,-26.3125000298023,42.3999990478158));
#370=CARTESIAN_POINT('',(9.65500000000006,-4.65000005960465,42.3999990478158));
#371=CARTESIAN_POINT('Origin',(9.65500000000006,-7.65000005960465,42.3999990478158));
#372=CARTESIAN_POINT('',(76.3550000000001,-4.65000005960465,42.3999990478158));
#373=CARTESIAN_POINT('',(70.79625,-4.65000005960465,42.3999990478158));
#374=CARTESIAN_POINT('Origin',(76.3550000000001,-7.65000005960465,42.3999990478158));
#375=CARTESIAN_POINT('Origin',(76.3550000000001,-7.65000005960465,42.3999990478158));
#376=CARTESIAN_POINT('',(76.3550000000001,-4.65000005960465,42.3999990478158));
#377=CARTESIAN_POINT('Origin',(13.0050000000001,-4.65000005960465,42.3999990478158));
#378=CARTESIAN_POINT('',(9.65500000000006,-4.65000005960465,42.3999990478158));
#379=CARTESIAN_POINT('Origin',(9.50500000000009,-29.025,42.3999990478158));
#380=CARTESIAN_POINT('',(9.65500000000007,-29.025,42.3999990478158));
#381=CARTESIAN_POINT('Origin',(9.65500000000006,-7.65000005960465,42.3999990478158));
#382=CARTESIAN_POINT('',(6.65500000000006,-7.65000005960465,42.3999990478158));
#383=CARTESIAN_POINT('Origin',(6.65500000000006,-7.50000005960465,42.3999990478158));
#384=CARTESIAN_POINT('',(6.65500000000007,-26.025,42.3999990478158));
#385=CARTESIAN_POINT('Origin',(9.65500000000007,-26.025,42.3999990478158));
#386=UNCERTAINTY_MEASURE_WITH_UNIT(LENGTH_MEASURE(0.01),#390,
'DISTANCE_ACCURACY_VALUE',
'Maximum model space distance between geometric entities at asserted c
onnectivities');
#387=UNCERTAINTY_MEASURE_WITH_UNIT(LENGTH_MEASURE(0.01),#390,
'DISTANCE_ACCURACY_VALUE',
'Maximum model space distance between geometric entities at asserted c
onnectivities');
#388=(
GEOMETRIC_REPRESENTATION_CONTEXT(3)
GLOBAL_UNCERTAINTY_ASSIGNED_CONTEXT((#386))
GLOBAL_UNIT_ASSIGNED_CONTEXT((#390,#391,#392))
REPRESENTATION_CONTEXT('','3D')
);
#389=(
GEOMETRIC_REPRESENTATION_CONTEXT(3)
GLOBAL_UNCERTAINTY_ASSIGNED_CONTEXT((#387))
GLOBAL_UNIT_ASSIGNED_CONTEXT((#390,#391,#392))
REPRESENTATION_CONTEXT('','3D')
);
#390=(
LENGTH_UNIT()
NAMED_UNIT(*)
SI_UNIT(.MILLI.,.METRE.)
);
#391=(
NAMED_UNIT(*)
PLANE_ANGLE_UNIT()
SI_UNIT($,.RADIAN.)
);
#392=(
NAMED_UNIT(*)
SI_UNIT($,.STERADIAN.)
SOLID_ANGLE_UNIT()
);
#393=SHAPE_DEFINITION_REPRESENTATION(#394,#395);
#394=PRODUCT_DEFINITION_SHAPE('',$,#397);
#395=SHAPE_REPRESENTATION('',(#230),#388);
#396=PRODUCT_DEFINITION_CONTEXT('part definition',#401,'design');
#397=PRODUCT_DEFINITION('laika v29','laika v29 v61',#398,#396);
#398=PRODUCT_DEFINITION_FORMATION('',$,#403);
#399=PRODUCT_RELATED_PRODUCT_CATEGORY('laika v29 v61','laika v29 v61',(#403));
#400=APPLICATION_PROTOCOL_DEFINITION('international standard',
'automotive_design',2009,#401);
#401=APPLICATION_CONTEXT(
'Core Data for Automotive Mechanical Design Process');
#402=PRODUCT_CONTEXT('part definition',#401,'mechanical');
#403=PRODUCT('laika v29','laika v29 v61',$,(#402));
#404=PRESENTATION_STYLE_ASSIGNMENT((#418));
#405=PRESENTATION_STYLE_ASSIGNMENT((#419));
#406=PRESENTATION_STYLE_ASSIGNMENT((#420));
#407=PRESENTATION_STYLE_ASSIGNMENT((#421));
#408=PRESENTATION_STYLE_ASSIGNMENT((#422));
#409=PRESENTATION_STYLE_ASSIGNMENT((#423));
#410=PRESENTATION_STYLE_ASSIGNMENT((#424));
#411=PRESENTATION_STYLE_ASSIGNMENT((#425));
#412=PRESENTATION_STYLE_ASSIGNMENT((#426));
#413=PRESENTATION_STYLE_ASSIGNMENT((#427));
#414=PRESENTATION_STYLE_ASSIGNMENT((#428));
#415=PRESENTATION_STYLE_ASSIGNMENT((#429));
#416=PRESENTATION_STYLE_ASSIGNMENT((#430));
#417=PRESENTATION_STYLE_ASSIGNMENT((#431));
#418=SURFACE_STYLE_USAGE(.BOTH.,#432);
#419=SURFACE_STYLE_USAGE(.BOTH.,#433);
#420=SURFACE_STYLE_USAGE(.BOTH.,#434);
#421=SURFACE_STYLE_USAGE(.BOTH.,#435);
#422=SURFACE_STYLE_USAGE(.BOTH.,#436);
#423=SURFACE_STYLE_USAGE(.BOTH.,#437);
#424=SURFACE_STYLE_USAGE(.BOTH.,#438);
#425=SURFACE_STYLE_USAGE(.BOTH.,#439);
#426=SURFACE_STYLE_USAGE(.BOTH.,#440);
#427=SURFACE_STYLE_USAGE(.BOTH.,#441);
#428=SURFACE_STYLE_USAGE(.BOTH.,#442);
#429=SURFACE_STYLE_USAGE(.BOTH.,#443);
#430=SURFACE_STYLE_USAGE(.BOTH.,#444);
#431=SURFACE_STYLE_USAGE(.BOTH.,#445);
#432=SURFACE_SIDE_STYLE('',(#446));
#433=SURFACE_SIDE_STYLE('',(#447));
#434=SURFACE_SIDE_STYLE('',(#448));
#435=SURFACE_SIDE_STYLE('',(#449));
#436=SURFACE_SIDE_STYLE('',(#450));
#437=SURFACE_SIDE_STYLE('',(#451));
#438=SURFACE_SIDE_STYLE('',(#452));
#439=SURFACE_SIDE_STYLE('',(#453));
#440=SURFACE_SIDE_STYLE('',(#454));
#441=SURFACE_SIDE_STYLE('',(#455));
#442=SURFACE_SIDE_STYLE('',(#456));
#443=SURFACE_SIDE_STYLE('',(#457));
#444=SURFACE_SIDE_STYLE('',(#458));
#445=SURFACE_SIDE_STYLE('',(#459));
#446=SURFACE_STYLE_FILL_AREA(#460);
#447=SURFACE_STYLE_FILL_AREA(#461);
#448=SURFACE_STYLE_FILL_AREA(#462);
#449=SURFACE_STYLE_FILL_AREA(#463);
#450=SURFACE_STYLE_FILL_AREA(#464);
#451=SURFACE_STYLE_FILL_AREA(#465);
#452=SURFACE_STYLE_FILL_AREA(#466);
#453=SURFACE_STYLE_FILL_AREA(#467);
#454=SURFACE_STYLE_FILL_AREA(#468);
#455=SURFACE_STYLE_FILL_AREA(#469);
#456=SURFACE_STYLE_FILL_AREA(#470);
#457=SURFACE_STYLE_FILL_AREA(#471);
#458=SURFACE_STYLE_FILL_AREA(#472);
#459=SURFACE_STYLE_FILL_AREA(#473);
#460=FILL_AREA_STYLE('Steel - Satin',(#474));
#461=FILL_AREA_STYLE('Aluminum - Polished',(#475));
#462=FILL_AREA_STYLE('Opaque(190,190,190)',(#476));
#463=FILL_AREA_STYLE('Opaque(64,64,64)',(#477));
#464=FILL_AREA_STYLE('Opaque(154,24,18)',(#478));
#465=FILL_AREA_STYLE('Opaque(37,36,36)',(#479));
#466=FILL_AREA_STYLE('Brass - Matte',(#480));
#467=FILL_AREA_STYLE('Aluminum - Anodized Glossy (Red)',(#481));
#468=FILL_AREA_STYLE('Brass - Polished',(#482));
#469=FILL_AREA_STYLE('Brass - Matte (1)',(#483));
#470=FILL_AREA_STYLE('Steel - Satin',(#484));
#471=FILL_AREA_STYLE('Opaque(210,209,199)',(#485));
#472=FILL_AREA_STYLE('Fabric (Light Brown)',(#486));
#473=FILL_AREA_STYLE('Fabric (Denim)',(#487));
#474=FILL_AREA_STYLE_COLOUR('Steel - Satin',#488);
#475=FILL_AREA_STYLE_COLOUR('Aluminum - Polished',#489);
#476=FILL_AREA_STYLE_COLOUR('Opaque(190,190,190)',#490);
#477=FILL_AREA_STYLE_COLOUR('Opaque(64,64,64)',#491);
#478=FILL_AREA_STYLE_COLOUR('Opaque(154,24,18)',#492);
#479=FILL_AREA_STYLE_COLOUR('Opaque(37,36,36)',#493);
#480=FILL_AREA_STYLE_COLOUR('Brass - Matte',#494);
#481=FILL_AREA_STYLE_COLOUR('Aluminum - Anodized Glossy (Red)',#495);
#482=FILL_AREA_STYLE_COLOUR('Brass - Polished',#496);
#483=FILL_AREA_STYLE_COLOUR('Brass - Matte (1)',#497);
#484=FILL_AREA_STYLE_COLOUR('Steel - Satin',#498);
#485=FILL_AREA_STYLE_COLOUR('Opaque(210,209,199)',#499);
#486=FILL_AREA_STYLE_COLOUR('Fabric (Light Brown)',#500);
#487=FILL_AREA_STYLE_COLOUR('Fabric (Denim)',#501);
#488=COLOUR_RGB('Steel - Satin',0.627450980392157,0.627450980392157,0.627450980392157);
#489=COLOUR_RGB('Aluminum - Polished',0.96078431372549,0.96078431372549,
0.964705882352941);
#490=COLOUR_RGB('Opaque(190,190,190)',0.745098039215686,0.745098039215686,
0.745098039215686);
#491=COLOUR_RGB('Opaque(64,64,64)',0.250980392156863,0.250980392156863,
0.250980392156863);
#492=COLOUR_RGB('Opaque(154,24,18)',0.603921568627451,0.0941176470588235,
0.0705882352941176);
#493=COLOUR_RGB('Opaque(37,36,36)',0.145098039215686,0.141176470588235,
0.141176470588235);
#494=COLOUR_RGB('Brass - Matte',0.952941176470588,0.796078431372549,0.486274509803922);
#495=COLOUR_RGB('Aluminum - Anodized Glossy (Red)',0.0941176470588235,0.431372549019608,
0.392156862745098);
#496=COLOUR_RGB('Brass - Polished',0.952941176470588,0.796078431372549,
0.486274509803922);
#497=COLOUR_RGB('Brass - Matte (1)',0.952941176470588,0.796078431372549,
0.486274509803922);
#498=COLOUR_RGB('Steel - Satin',0.627450980392157,0.627450980392157,0.627450980392157);
#499=COLOUR_RGB('Opaque(210,209,199)',0.823529411764706,0.819607843137255,
0.780392156862745);
#500=COLOUR_RGB('Fabric (Light Brown)',0.,0.,0.);
#501=COLOUR_RGB('Fabric (Denim)',0.,0.,0.);
ENDSEC;
END-ISO-10303-21;
