0
SECTION
2
HEADER
9
$INSUNITS
70
4
9
$ACADVER
1
AC1014
9
$HANDSEED
5
FFFF
0
ENDSEC
0
SECTION
2
TABLES
0
TABLE
2
VPORT
5
8
100
AcDbSymbolTable
0
ENDTAB
0
TABLE
2
LTYPE
5
5
100
AcDbSymbolTable
0
LTYPE
5
14
100
AcDbSymbolTableRecord
100
AcDbLinetypeTableRecord
2
BYBLOCK
70
0
0
LTYPE
5
15
100
AcDbSymbolTableRecord
100
AcDbLinetypeTableRecord
2
BYLAYER
70
0
0
LTYPE
5
16
100
AcDbSymbolTableRecord
100
AcDbLinetypeTableRecord
2
DASHED
70
0
3
Dashed __ __ __ __ __ __ __ __ __ __ __ __ __ _
72
65
73
2
40
0.75
49
0.5
74
0
49
-0.25
74
0
0
ENDTAB
0
TABLE
2
LAYER
5
2
100
AcDbSymbolTable
70
2
0
LAYER
5
50
100
AcDbSymbolTableRecord
100
AcDbLayerTableRecord
2
0
70
0
62
7
6
CONTINUOUS
0
ENDTAB
0
TABLE
2
STYLE
5
3
100
AcDbSymbolTable
70
1
0
STYLE
5
11
100
AcDbSymbolTableRecord
100
AcDbTextStyleTableRecord
2
STANDARD
70
0
0
ENDTAB
0
TABLE
2
VIEW
5
6
100
AcDbSymbolTable
70
0
0
ENDTAB
0
TABLE
2
UCS
5
7
100
AcDbSymbolTable
70
0
0
ENDTAB
0
TABLE
2
APPID
5
9
100
AcDbSymbolTable
70
2
0
APPID
5
12
100
AcDbSymbolTableRecord
100
AcDbRegAppTableRecord
2
ACAD
70
0
0
ENDTAB
0
TABLE
2
DIMSTYLE
5
A
100
AcDbSymbolTable
70
1
0
ENDTAB
0
TABLE
2
BLOCK_RECORD
5
1
100
AcDbSymbolTable
70
1
0
BLOCK_RECORD
5
1F
100
AcDbSymbolTableRecord
100
AcDbBlockTableRecord
2
*MODEL_SPACE
0
BLOCK_RECORD
5
1B
100
AcDbSymbolTableRecord
100
AcDbBlockTableRecord
2
*PAPER_SPACE
0
ENDTAB
0
ENDSEC
0
SECTION
2
BLOCKS
0
BLOCK
5
20
100
AcDbEntity
100
AcDbBlockBegin
2
*MODEL_SPACE
0
ENDBLK
5
21
100
AcDbEntity
100
AcDbBlockEnd
0
BLOCK
5
1C
100
AcDbEntity
100
AcDbBlockBegin
2
*PAPER_SPACE
0
ENDBLK
5
1D
100
AcDbEntity
100
AcDbBlockEnd
0
ENDSEC
0
SECTION
2
ENTITIES
0
LWPOLYLINE
5
100
100
AcDbEntity
8
0
100
AcDbPolyline
90
8
70
1
43
0.0
10
-252.26875000000004
20
79.224999999999994
10
-252.26875000000001
20
92.224999999999994
42
-0.41421356237309503
10
-251.76875000000001
20
92.724999999999994
10
-238.76875000000001
20
92.725000000000009
42
-0.41421356237309503
10
-238.26875000000001
20
92.224999999999994
10
-238.26875000000001
20
79.224999999999994
42
-0.41421356237309503
10
-238.76875000000001
20
78.724999999999994
10
-251.76875000000001
20
78.724999999999994
42
-0.41421356237309503
0
LWPOLYLINE
5
101
100
AcDbEntity
8
0
100
AcDbPolyline
90
8
70
1
43
0.0
10
-230.83750000000003
20
79.224999999999994
10
-230.83750000000003
20
92.224999999999994
42
-0.41421356237309503
10
-230.33750000000001
20
92.724999999999994
10
-217.33750000000001
20
92.724999999999966
42
-0.41421356237309503
10
-216.83750000000003
20
92.224999999999994
10
-216.83750000000001
20
79.224999999999994
42
-0.41421356237309503
10
-217.33750000000001
20
78.724999999999994
10
-230.33750000000001
20
78.724999999999994
42
-0.41421356237309503
0
LWPOLYLINE
5
102
100
AcDbEntity
8
0
100
AcDbPolyline
90
8
70
1
43
0.0
10
-207.02500000000001
20
79.224999999999994
10
-207.02500000000001
20
92.224999999999994
42
-0.41421356237309503
10
-206.52500000000003
20
92.724999999999994
10
-193.52500000000003
20
92.725000000000009
42
-0.41421356237309503
10
-193.02500000000003
20
92.224999999999994
10
-193.02500000000003
20
79.224999999999994
42
-0.41421356237309503
10
-193.52500000000003
20
78.724999999999994
10
-206.52500000000003
20
78.725000000000023
42
-0.41421356237309503
0
LWPOLYLINE
5
103
100
AcDbEntity
8
0
100
AcDbPolyline
90
4
70
1
43
0.0
10
-233.55167205616118
20
95.252912304347731
10
-235.55166351235843
20
95.247066353781747
42
-0.99999999999999989
10
-235.55458648764147
20
96.247062081880358
10
-233.55459503144425
20
96.252908032446328
42
-0.99999999999999989
0
LWPOLYLINE
5
104
100
AcDbEntity
8
0
100
AcDbPolyline
90
4
70
1
43
0.0
10
-185.36744059298715
20
95.252624020439839
10
-187.36743367252882
20
95.247358668380841
42
-0.99999998946328783
10
-187.3700663380078
20
96.247355202911052
10
-185.37007325846616
20
96.252620554970093
42
-0.99999998946328783
0
LWPOLYLINE
5
105
100
AcDbEntity
8
0
100
AcDbPolyline
90
8
70
1
43
0.0
10
-150.16249999999999
20
92.224999999999994
10
-150.16249999999999
20
79.224999999999994
42
-0.41421356237309503
10
-150.66249999999999
20
78.724999999999994
10
-163.66250000000002
20
78.724999999999994
42
-0.41421356237309503
10
-164.16250000000002
20
79.224999999999994
10
-164.16249999999997
20
92.224999999999994
42
-0.41421356237309503
10
-163.66250000000002
20
92.724999999999994
10
-150.66249999999999
20
92.725000000000009
42
-0.41421356237309503
0
LWPOLYLINE
5
106
100
AcDbEntity
8
0
100
AcDbPolyline
90
8
70
1
43
0.0
10
-93.012500000000017
20
92.224999999999994
10
-93.012499999999989
20
79.224999999999994
42
-0.41421356237309503
10
-93.512500000000003
20
78.724999999999994
10
-106.51250000000002
20
78.724999999999994
42
-0.41421356237309503
10
-107.01250000000002
20
79.224999999999994
10
-107.0125
20
92.224999999999994
42
-0.41421356237309503
10
-106.51250000000002
20
92.724999999999994
10
-93.512500000000003
20
92.724999999999994
42
-0.41421356237309503
0
LWPOLYLINE
5
107
100
AcDbEntity
8
0
100
AcDbPolyline
90
8
70
1
43
0.0
10
-107.80000000000001
20
21.575000000000003
42
0.41421356237309503
10
-107.30000000000001
20
22.074999999999999
10
-107.30000000000001
20
35.075000000000003
42
0.41421356237309503
10
-107.80000000000001
20
35.57500000000001
10
-120.8
20
35.575000000000003
42
0.41421356237309503
10
-121.30000000000001
20
35.075000000000003
10
-121.30000000000001
20
22.074999999999999
42
0.41421356237309503
10
-120.8
20
21.574999999999992
0
LWPOLYLINE
5
108
100
AcDbEntity
8
0
100
AcDbPolyline
90
8
70
1
43
0.0
10
-126.85000000000001
20
21.575000000000003
42
0.41421356237309503
10
-126.35000000000002
20
22.074999999999999
10
-126.34999999999999
20
35.075000000000003
42
0.41421356237309503
10
-126.85000000000001
20
35.57500000000001
10
-139.84999999999999
20
35.575000000000003
42
0.41421356237309503
10
-140.34999999999999
20
35.075000000000003
10
-140.34999999999999
20
22.074999999999999
42
0.41421356237309503
10
-139.84999999999999
20
21.574999999999992
0
LWPOLYLINE
5
109
100
AcDbEntity
8
0
100
AcDbPolyline
90
8
70
1
43
0.0
10
-145.90000000000001
20
21.575000000000003
42
0.41421356237309503
10
-145.40000000000003
20
22.074999999999999
10
-145.40000000000001
20
35.075000000000003
42
0.41421356237309503
10
-145.90000000000001
20
35.57500000000001
10
-158.90000000000001
20
35.575000000000003
42
0.41421356237309503
10
-159.40000000000001
20
35.075000000000003
10
-159.40000000000001
20
22.074999999999999
42
0.41421356237309503
10
-158.90000000000001
20
21.574999999999992
0
LWPOLYLINE
5
110
100
AcDbEntity
8
0
100
AcDbPolyline
90
8
70
1
43
0.0
10
-164.95000000000002
20
21.575000000000003
42
0.41421356237309503
10
-164.44999999999999
20
22.074999999999999
10
-164.44999999999999
20
35.075000000000003
42
0.41421356237309503
10
-164.95000000000002
20
35.57500000000001
10
-177.94999999999999
20
35.575000000000003
42
0.41421356237309503
10
-178.44999999999999
20
35.075000000000003
10
-178.44999999999999
20
22.074999999999999
42
0.41421356237309503
10
-177.94999999999999
20
21.574999999999992
0
LWPOLYLINE
5
111
100
AcDbEntity
8
0
100
AcDbPolyline
90
8
70
1
43
0.0
10
-184.00000000000003
20
21.575000000000003
42
0.41421356237309503
10
-183.5
20
22.074999999999999
10
-183.5
20
35.075000000000003
42
0.41421356237309503
10
-184.00000000000003
20
35.57500000000001
10
-197.00000000000003
20
35.575000000000003
42
0.41421356237309503
10
-197.50000000000003
20
35.075000000000003
10
-197.5
20
22.074999999999999
42
0.41421356237309503
10
-197.00000000000003
20
21.575000000000028
0
LWPOLYLINE
5
112
100
AcDbEntity
8
0
100
AcDbPolyline
90
8
70
1
43
0.0
10
-203.05000000000004
20
21.575000000000003
42
0.41421356237309503
10
-202.55000000000001
20
22.074999999999999
10
-202.55000000000001
20
35.075000000000003
42
0.41421356237309503
10
-203.05000000000004
20
35.57500000000001
10
-216.05000000000004
20
35.575000000000003
42
0.41421356237309503
10
-216.55000000000004
20
35.075000000000003
10
-216.55000000000001
20
22.074999999999999
42
0.41421356237309503
10
-216.05000000000004
20
21.575000000000028
0
LWPOLYLINE
5
113
100
AcDbEntity
8
0
100
AcDbPolyline
90
8
70
1
43
0.0
10
-222.10000000000002
20
21.575000000000003
42
0.41421356237309503
10
-221.59999999999999
20
22.074999999999999
10
-221.59999999999999
20
35.075000000000003
42
0.41421356237309503
10
-222.10000000000002
20
35.57500000000001
10
-235.10000000000002
20
35.575000000000003
42
0.41421356237309503
10
-235.60000000000002
20
35.075000000000003
10
-235.60000000000002
20
22.074999999999999
42
0.41421356237309503
10
-235.10000000000002
20
21.574999999999992
0
LWPOLYLINE
5
114
100
AcDbEntity
8
0
100
AcDbPolyline
90
8
70
1
43
0.0
10
-241.15000000000003
20
21.575000000000003
42
0.41421356237309503
10
-240.65000000000001
20
22.074999999999999
10
-240.65000000000001
20
35.075000000000003
42
0.41421356237309503
10
-241.15000000000003
20
35.57500000000001
10
-254.15000000000003
20
35.575000000000003
42
0.41421356237309503
10
-254.65000000000003
20
35.075000000000003
10
-254.65000000000003
20
22.074999999999999
42
0.41421356237309503
10
-254.15000000000003
20
21.574999999999992
0
LWPOLYLINE
5
115
100
AcDbEntity
8
0
100
AcDbPolyline
90
8
70
1
43
0.0
10
-5.40625
20
40.625
42
0.41421356237309503
10
-4.9062500000000018
20
41.125
10
-4.90625
20
54.125000000000007
42
0.41421356237309698
10
-5.4062500000000036
20
54.625
10
-23.168749999999999
20
54.625
42
0.41421356237309503
10
-23.668750000000003
20
54.125000000000007
10
-23.668749999999999
20
41.125
42
0.41421356237309764
10
-23.168749999999996
20
40.625
0
LWPOLYLINE
5
116
100
AcDbEntity
8
0
100
AcDbPolyline
90
8
70
1
43
0.0
10
-36.362499999999997
20
40.625
42
0.41421356237309503
10
-35.862500000000004
20
41.125
10
-35.862499999999997
20
54.125000000000007
42
0.41421356237309764
10
-36.362500000000004
20
54.625
10
-49.362500000000004
20
54.625
42
0.41421356237309503
10
-49.862499999999997
20
54.125000000000007
10
-49.862499999999997
20
41.125
42
0.41421356237309503
10
-49.362500000000004
20
40.625
0
LWPOLYLINE
5
117
100
AcDbEntity
8
0
100
AcDbPolyline
90
8
70
1
43
0.0
10
-55.412500000000009
20
40.625
42
0.41421356237309503
10
-54.912500000000009
20
41.125
10
-54.912500000000009
20
54.125000000000007
42
0.41421356237309503
10
-55.412500000000009
20
54.625
10
-68.412499999999994
20
54.625
42
0.41421356237309503
10
-68.912499999999994
20
54.125000000000007
10
-68.912499999999994
20
41.125
42
0.41421356237309503
10
-68.412499999999994
20
40.625
0
LWPOLYLINE
5
118
100
AcDbEntity
8
0
100
AcDbPolyline
90
8
70
1
43
0.0
10
-74.462500000000006
20
40.625
42
0.41421356237309503
10
-73.962500000000006
20
41.125
10
-73.962500000000006
20
54.125000000000007
42
0.41421356237309503
10
-74.462500000000006
20
54.625
10
-87.46250000000002
20
54.625
42
0.41421356237309503
10
-87.962500000000006
20
54.125000000000007
10
-87.962500000000006
20
41.125
42
0.41421356237309503
10
-87.46250000000002
20
40.625000000000007
0
LWPOLYLINE
5
119
100
AcDbEntity
8
0
100
AcDbPolyline
90
8
70
1
43
0.0
10
-93.512500000000003
20
40.625
42
0.41421356237309503
10
-93.012499999999989
20
41.125
10
-93.012500000000017
20
54.125000000000007
42
0.41421356237309503
10
-93.512500000000003
20
54.624999999999993
10
-106.51250000000002
20
54.625
42
0.41421356237309503
10
-107.01250000000002
20
54.125000000000007
10
-107.01250000000002
20
41.125
42
0.41421356237309503
10
-106.51250000000002
20
40.624999999999993
0
LWPOLYLINE
5
120
100
AcDbEntity
8
0
100
AcDbPolyline
90
8
70
1
43
0.0
10
-112.56250000000001
20
40.625
42
0.41421356237309503
10
-112.0625
20
41.125
10
-112.0625
20
54.125000000000007
42
0.41421356237309503
10
-112.56250000000001
20
54.625000000000014
10
-125.5625
20
54.625
42
0.41421356237309503
10
-126.0625
20
54.125000000000007
10
-126.06250000000001
20
41.125
42
0.41421356237309503
10
-125.5625
20
40.624999999999993
0
LWPOLYLINE
5
121
100
AcDbEntity
8
0
100
AcDbPolyline
90
8
70
1
43
0.0
10
-131.61250000000001
20
40.625
42
0.41421356237309503
10
-131.11250000000001
20
41.125
10
-131.11250000000001
20
54.125000000000007
42
0.41421356237309503
10
-131.61250000000001
20
54.625000000000014
10
-144.61250000000001
20
54.625
42
0.41421356237309503
10
-145.11250000000001
20
54.125000000000007
10
-145.11250000000001
20
41.125
42
0.41421356237309503
10
-144.61250000000001
20
40.624999999999993
0
LWPOLYLINE
5
122
100
AcDbEntity
8
0
100
AcDbPolyline
90
8
70
1
43
0.0
10
-150.66249999999999
20
40.625
42
0.41421356237309503
10
-150.16249999999999
20
41.125
10
-150.16249999999999
20
54.125000000000007
42
0.41421356237309503
10
-150.66249999999999
20
54.625000000000014
10
-163.66250000000002
20
54.625
42
0.41421356237309503
10
-164.16250000000002
20
54.125000000000007
10
-164.16250000000002
20
41.125
42
0.41421356237309503
10
-163.66250000000002
20
40.624999999999993
0
LWPOLYLINE
5
123
100
AcDbEntity
8
0
100
AcDbPolyline
90
8
70
1
43
0.0
10
-169.71250000000001
20
40.625
42
0.41421356237309503
10
-169.21250000000001
20
41.125
10
-169.21250000000001
20
54.125000000000007
42
0.41421356237309503
10
-169.71250000000001
20
54.625000000000014
10
-182.71250000000003
20
54.625
42
0.41421356237309503
10
-183.21250000000003
20
54.125000000000007
10
-183.21250000000003
20
41.125
42
0.41421356237309503
10
-182.71250000000003
20
40.624999999999993
0
LWPOLYLINE
5
124
100
AcDbEntity
8
0
100
AcDbPolyline
90
8
70
1
43
0.0
10
-188.76249999999999
20
40.625
42
0.41421356237309503
10
-188.26249999999999
20
41.125
10
-188.26249999999999
20
54.125000000000007
42
0.41421356237309503
10
-188.76249999999999
20
54.625000000000014
10
-201.76249999999999
20
54.625
42
0.41421356237309503
10
-202.26249999999999
20
54.125000000000007
10
-202.26249999999999
20
41.125
42
0.41421356237309503
10
-201.76249999999999
20
40.624999999999993
0
LWPOLYLINE
5
125
100
AcDbEntity
8
0
100
AcDbPolyline
90
8
70
1
43
0.0
10
-207.8125
20
40.625
42
0.41421356237309503
10
-207.3125
20
41.125
10
-207.31250000000003
20
54.125000000000007
42
0.41421356237309503
10
-207.8125
20
54.624999999999979
10
-220.8125
20
54.625
42
0.41421356237309503
10
-221.3125
20
54.125000000000007
10
-221.3125
20
41.125
42
0.41421356237309503
10
-220.8125
20
40.624999999999993
0
LWPOLYLINE
5
126
100
AcDbEntity
8
0
100
AcDbPolyline
90
8
70
1
43
0.0
10
-234.00625000000002
20
40.625
42
0.41421356237309503
10
-233.50625000000002
20
41.125
10
-233.50625000000002
20
54.125000000000007
42
0.41421356237309503
10
-234.00625000000002
20
54.625000000000014
10
-247.00625000000002
20
54.625
42
0.41421356237309503
10
-247.50625000000002
20
54.125000000000007
10
-247.50624999999999
20
41.125
42
0.41421356237309503
10
-247.00625000000002
20
40.625000000000028
0
LWPOLYLINE
5
127
100
AcDbEntity
8
0
100
AcDbPolyline
90
8
70
1
43
0.0
10
-60.174999999999997
20
59.675000000000004
42
0.41421356237309503
10
-59.675000000000004
20
60.174999999999997
10
-59.675000000000004
20
73.174999999999997
42
0.41421356237309503
10
-60.174999999999997
20
73.674999999999997
10
-73.174999999999997
20
73.674999999999997
42
0.41421356237310025
10
-73.674999999999997
20
73.174999999999983
10
-73.674999999999997
20
60.174999999999997
42
0.41421356237309503
10
-73.174999999999997
20
59.675000000000004
0
LWPOLYLINE
5
128
100
AcDbEntity
8
0
100
AcDbPolyline
90
8
70
1
43
0.0
10
-79.224999999999994
20
59.675000000000004
42
0.41421356237309503
10
-78.724999999999994
20
60.174999999999997
10
-78.724999999999994
20
73.174999999999997
42
0.41421356237309503
10
-79.224999999999994
20
73.674999999999997
10
-92.224999999999994
20
73.674999999999997
42
0.41421356237310025
10
-92.725000000000009
20
73.174999999999983
10
-92.724999999999994
20
60.174999999999997
42
0.41421356237309503
10
-92.224999999999994
20
59.675000000000011
0
LWPOLYLINE
5
129
100
AcDbEntity
8
0
100
AcDbPolyline
90
8
70
1
43
0.0
10
-98.275000000000006
20
59.675000000000004
42
0.41421356237309503
10
-97.775000000000006
20
60.174999999999997
10
-97.77500000000002
20
73.174999999999997
42
0.41421356237309503
10
-98.275000000000006
20
73.674999999999983
10
-111.27500000000001
20
73.674999999999997
42
0.41421356237310025
10
-111.77500000000002
20
73.174999999999983
10
-111.77500000000002
20
60.174999999999997
42
0.41421356237309503
10
-111.27500000000001
20
59.674999999999997
0
LWPOLYLINE
5
130
100
AcDbEntity
8
0
100
AcDbPolyline
90
8
70
1
43
0.0
10
-117.32500000000002
20
59.675000000000004
42
0.41421356237309503
10
-116.82500000000002
20
60.174999999999997
10
-116.82500000000002
20
73.174999999999997
42
0.41421356237309503
10
-117.32500000000002
20
73.674999999999997
10
-130.32499999999999
20
73.674999999999997
42
0.41421356237310025
10
-130.82499999999999
20
73.174999999999983
10
-130.82499999999999
20
60.174999999999997
42
0.41421356237309503
10
-130.32499999999999
20
59.674999999999997
0
LWPOLYLINE
5
131
100
AcDbEntity
8
0
100
AcDbPolyline
90
8
70
1
43
0.0
10
-136.375
20
59.675000000000004
42
0.41421356237309503
10
-135.87500000000003
20
60.174999999999997
10
-135.875
20
73.174999999999997
42
0.41421356237309503
10
-136.375
20
73.674999999999997
10
-149.375
20
73.674999999999997
42
0.41421356237310025
10
-149.875
20
73.174999999999983
10
-149.875
20
60.174999999999997
42
0.41421356237309503
10
-149.375
20
59.674999999999997
0
LWPOLYLINE
5
132
100
AcDbEntity
8
0
100
AcDbPolyline
90
8
70
1
43
0.0
10
-155.42500000000001
20
59.675000000000004
42
0.41421356237309503
10
-154.92500000000004
20
60.174999999999997
10
-154.92500000000001
20
73.174999999999997
42
0.41421356237309503
10
-155.42500000000001
20
73.674999999999997
10
-168.42500000000001
20
73.674999999999997
42
0.41421356237310025
10
-168.92500000000001
20
73.174999999999983
10
-168.92500000000001
20
60.174999999999997
42
0.41421356237309503
10
-168.42500000000001
20
59.674999999999997
0
LWPOLYLINE
5
133
100
AcDbEntity
8
0
100
AcDbPolyline
90
8
70
1
43
0.0
10
-174.47500000000002
20
59.675000000000004
42
0.41421356237309503
10
-173.97500000000002
20
60.174999999999997
10
-173.97500000000002
20
73.174999999999997
42
0.41421356237309503
10
-174.47500000000002
20
73.674999999999997
10
-187.47499999999999
20
73.674999999999997
42
0.41421356237310025
10
-187.97499999999999
20
73.174999999999983
10
-187.97499999999999
20
60.174999999999997
42
0.41421356237309503
10
-187.47499999999999
20
59.674999999999997
0
LWPOLYLINE
5
134
100
AcDbEntity
8
0
100
AcDbPolyline
90
8
70
1
43
0.0
10
-193.52500000000003
20
59.675000000000004
42
0.41421356237309503
10
-193.02500000000003
20
60.174999999999997
10
-193.02500000000003
20
73.174999999999997
42
0.41421356237309503
10
-193.52500000000003
20
73.674999999999997
10
-206.52500000000003
20
73.674999999999997
42
0.41421356237310025
10
-207.02500000000003
20
73.174999999999983
10
-207.02500000000001
20
60.174999999999997
42
0.41421356237309503
10
-206.52500000000003
20
59.675000000000026
0
LWPOLYLINE
5
135
100
AcDbEntity
8
0
100
AcDbPolyline
90
8
70
1
43
0.0
10
-212.57499999999999
20
59.675000000000004
42
0.41421356237309503
10
-212.07499999999999
20
60.174999999999997
10
-212.07499999999999
20
73.174999999999997
42
0.41421356237309503
10
-212.57499999999999
20
73.674999999999997
10
-225.57500000000002
20
73.674999999999997
42
0.41421356237310025
10
-226.07500000000002
20
73.174999999999983
10
-226.07500000000002
20
60.174999999999997
42
0.41421356237309503
10
-225.57500000000002
20
59.674999999999997
0
LWPOLYLINE
5
136
100
AcDbEntity
8
0
100
AcDbPolyline
90
8
70
1
43
0.0
10
-236.38750000000002
20
59.675000000000004
42
0.41421356237309503
10
-235.88750000000002
20
60.174999999999997
10
-235.88750000000002
20
73.174999999999997
42
0.41421356237309503
10
-236.38750000000002
20
73.674999999999997
10
-249.38749999999999
20
73.674999999999997
42
0.41421356237310025
10
-249.88749999999999
20
73.174999999999983
10
-249.88749999999999
20
60.174999999999997
42
0.41421356237309503
10
-249.38749999999999
20
59.674999999999997
0
LWPOLYLINE
5
137
100
AcDbEntity
8
0
100
AcDbPolyline
90
8
70
1
43
0.0
10
-5.40625
20
78.724999999999994
42
0.41421356237309503
10
-4.9062500000000018
20
79.224999999999994
10
-4.90625
20
92.224999999999994
42
0.41421356237309698
10
-5.4062500000000036
20
92.725000000000009
10
-18.40625
20
92.724999999999994
42
0.41421356237309503
10
-18.90625
20
92.224999999999994
10
-18.90625
20
79.224999999999994
42
0.41421356237310025
10
-18.406249999999993
20
78.724999999999994
0
LWPOLYLINE
5
138
100
AcDbEntity
8
0
100
AcDbPolyline
90
8
70
1
43
0.0
10
-26.837499999999999
20
78.724999999999994
42
0.41421356237309503
10
-26.337499999999999
20
79.224999999999994
10
-26.337499999999999
20
92.224999999999994
42
0.41421356237309503
10
-26.837499999999999
20
92.725000000000009
10
-39.837499999999999
20
92.724999999999994
42
0.41421356237309503
10
-40.337499999999991
20
92.224999999999994
10
-40.337500000000006
20
79.224999999999994
42
0.41421356237309243
10
-39.837500000000006
20
78.724999999999994
0
LWPOLYLINE
5
139
100
AcDbEntity
8
0
100
AcDbPolyline
90
8
70
1
43
0.0
10
-50.650000000000006
20
78.724999999999994
42
0.41421356237309503
10
-50.150000000000006
20
79.224999999999994
10
-50.150000000000006
20
92.224999999999994
42
0.41421356237309503
10
-50.650000000000006
20
92.725000000000009
10
-63.650000000000006
20
92.724999999999994
42
0.41421356237309503
10
-64.149999999999991
20
92.224999999999994
10
-64.150000000000006
20
79.224999999999994
42
0.41421356237309503
10
-63.650000000000006
20
78.724999999999994
0
LWPOLYLINE
5
140
100
AcDbEntity
8
0
100
AcDbPolyline
90
8
70
1
43
0.0
10
-3.0249999999999999
20
2.5249999999999999
42
0.41421356237309503
10
-2.5249999999999999
20
3.0249999999999999
10
-2.5249999999999999
20
16.024999999999999
42
0.41421356237309631
10
-3.0250000000000021
20
16.525000000000002
10
-16.024999999999999
20
16.524999999999999
42
0.41421356237309503
10
-16.524999999999999
20
16.024999999999999
10
-16.524999999999999
20
3.0249999999999999
42
0.41421356237310025
10
-16.024999999999991
20
2.5250000000000017
0
LWPOLYLINE
5
141
100
AcDbEntity
8
0
100
AcDbPolyline
90
8
70
1
43
0.0
10
-22.074999999999999
20
2.5249999999999999
42
0.41421356237309503
10
-21.575000000000003
20
3.0249999999999999
10
-21.575000000000003
20
16.024999999999999
42
0.41421356237309243
10
-22.074999999999996
20
16.524999999999999
10
-35.075000000000003
20
16.524999999999999
42
0.41421356237309503
10
-35.575000000000003
20
16.024999999999999
10
-35.575000000000003
20
3.0249999999999999
42
0.41421356237309503
10
-35.075000000000003
20
2.5249999999999972
0
LWPOLYLINE
5
142
100
AcDbEntity
8
0
100
AcDbPolyline
90
8
70
1
43
0.0
10
-60.174999999999997
20
2.5249999999999999
42
0.41421356237309503
10
-59.675000000000004
20
3.0249999999999999
10
-59.675000000000004
20
16.024999999999999
42
0.41421356237309503
10
-60.174999999999997
20
16.524999999999999
10
-73.174999999999997
20
16.524999999999999
42
0.41421356237309503
10
-73.674999999999997
20
16.024999999999999
10
-73.674999999999997
20
3.0249999999999999
42
0.41421356237309503
10
-73.174999999999997
20
2.5250000000000017
0
LWPOLYLINE
5
143
100
AcDbEntity
8
0
100
AcDbPolyline
90
8
70
1
43
0.0
10
-41.125
20
2.5249999999999999
42
0.41421356237309503
10
-40.625
20
3.0249999999999999
10
-40.625
20
16.024999999999999
42
0.41421356237309503
10
-41.125
20
16.524999999999999
10
-54.125000000000007
20
16.524999999999999
42
0.41421356237309503
10
-54.625
20
16.024999999999999
10
-54.625
20
3.0249999999999999
42
0.41421356237309503
10
-54.125000000000007
20
2.5250000000000017
0
LWPOLYLINE
5
144
100
AcDbEntity
8
0
100
AcDbPolyline
90
8
70
1
43
0.0
10
-7.7875000000000005
20
21.575000000000003
42
0.41421356237309503
10
-7.2875000000000023
20
22.074999999999999
10
-7.2874999999999996
20
35.075000000000003
42
0.41421356237309764
10
-7.787500000000005
20
35.575000000000003
10
-20.787500000000001
20
35.575000000000003
42
0.41421356237309503
10
-21.287500000000001
20
35.075000000000003
10
-21.287500000000001
20
22.074999999999999
42
0.41421356237310025
10
-20.787499999999994
20
21.575000000000003
0
LWPOLYLINE
5
145
100
AcDbEntity
8
0
100
AcDbPolyline
90
8
70
1
43
0.0
10
-88.75
20
21.575000000000003
42
0.41421356237309503
10
-88.25
20
22.074999999999999
10
-88.250000000000014
20
35.075000000000003
42
0.41421356237309503
10
-88.75
20
35.574999999999989
10
-101.75
20
35.575000000000003
42
0.41421356237309503
10
-102.25000000000001
20
35.075000000000003
10
-102.25000000000001
20
22.074999999999999
42
0.41421356237309503
10
-101.75
20
21.574999999999992
0
LWPOLYLINE
5
146
100
AcDbEntity
8
0
100
AcDbPolyline
90
8
70
1
43
0.0
10
-50.650000000000006
20
21.575000000000003
42
0.41421356237309503
10
-50.150000000000006
20
22.074999999999999
10
-50.150000000000006
20
35.075000000000003
42
0.41421356237309503
10
-50.650000000000006
20
35.575000000000003
10
-63.650000000000006
20
35.575000000000003
42
0.41421356237309503
10
-64.150000000000006
20
35.075000000000003
10
-64.150000000000006
20
22.074999999999999
42
0.41421356237309503
10
-63.650000000000006
20
21.574999999999992
0
LWPOLYLINE
5
147
100
AcDbEntity
8
0
100
AcDbPolyline
90
8
70
1
43
0.0
10
-98.275000000000006
20
2.5249999999999999
42
0.41421356237309503
10
-97.775000000000006
20
3.0249999999999999
10
-97.77500000000002
20
16.024999999999999
42
0.41421356237309503
10
-98.275000000000006
20
16.524999999999991
10
-111.27500000000001
20
16.524999999999999
42
0.41421356237309503
10
-111.77500000000002
20
16.024999999999999
10
-111.77500000000002
20
3.0249999999999999
42
0.41421356237309503
10
-111.27500000000001
20
2.5249999999999928
0
LWPOLYLINE
5
148
100
AcDbEntity
8
0
100
AcDbPolyline
90
8
70
1
43
0.0
10
-31.600000000000001
20
21.575000000000003
42
0.41421356237309503
10
-31.100000000000001
20
22.074999999999999
10
-31.100000000000001
20
35.075000000000003
42
0.41421356237309503
10
-31.600000000000001
20
35.575000000000003
10
-44.600000000000001
20
35.575000000000003
42
0.41421356237309503
10
-45.099999999999994
20
35.075000000000003
10
-45.100000000000009
20
22.074999999999999
42
0.41421356237309503
10
-44.600000000000001
20
21.574999999999992
0
LWPOLYLINE
5
149
100
AcDbEntity
8
0
100
AcDbPolyline
90
8
70
1
43
0.0
10
-79.224999999999994
20
2.5249999999999999
42
0.41421356237309503
10
-78.724999999999994
20
3.0249999999999999
10
-78.724999999999994
20
16.024999999999999
42
0.41421356237309503
10
-79.224999999999994
20
16.524999999999999
10
-92.224999999999994
20
16.524999999999999
42
0.41421356237309503
10
-92.725000000000009
20
16.024999999999999
10
-92.724999999999994
20
3.0249999999999999
42
0.41421356237309503
10
-92.224999999999994
20
2.5250000000000106
0
LWPOLYLINE
5
150
100
AcDbEntity
8
0
100
AcDbPolyline
90
8
70
1
43
0.0
10
-69.700000000000003
20
21.575000000000003
42
0.41421356237309503
10
-69.200000000000003
20
22.074999999999999
10
-69.200000000000003
20
35.075000000000003
42
0.41421356237309503
10
-69.700000000000003
20
35.575000000000003
10
-82.700000000000017
20
35.575000000000003
42
0.41421356237309503
10
-83.200000000000017
20
35.075000000000003
10
-83.200000000000003
20
22.074999999999999
42
0.41421356237309503
10
-82.700000000000017
20
21.57500000000001
0
LWPOLYLINE
5
151
100
AcDbEntity
8
0
100
AcDbPolyline
90
4
70
1
43
0.0
10
-94.250000000000028
20
-1.0000000000000007
42
0.99999999999999989
10
-94.250000000000028
20
-2.7755575615628914e-16
10
-96.250000000000014
20
-4.8572257327350599e-16
42
0.99999999999999989
10
-96.250000000000014
20
-1.0000000000000004
0
LWPOLYLINE
5
152
100
AcDbEntity
8
0
100
AcDbPolyline
90
4
70
1
43
0.0
10
-18.050000000000004
20
-1.0000000000000007
42
0.99999999999999989
10
-18.050000000000004
20
-2.7755575615628914e-16
10
-20.050000000000004
20
-4.8572257327350599e-16
42
0.99999999999999989
10
-20.050000000000004
20
-1.0000000000000004
0
LWPOLYLINE
5
153
100
AcDbEntity
8
0
100
AcDbPolyline
90
4
70
1
43
0.0
10
-162.92500000000001
20
19.050000000000033
10
-160.92500000000001
20
19.050000000000033
42
-0.99999999999999989
10
-160.92500000000001
20
18.050000000000029
10
-162.92500000000001
20
18.050000000000029
42
-0.99999999999999989
0
LWPOLYLINE
5
154
100
AcDbEntity
8
0
100
AcDbPolyline
90
4
70
1
43
0.0
10
-69.804878507589407
20
95.252748699067325
10
-71.80487089990666
20
95.247232298694058
42
-0.99999999999999989
10
-71.807629100093322
20
96.247228494852635
10
-69.807636707776055
20
96.252744895225945
42
-0.99999999999999989
0
LWPOLYLINE
5
155
100
AcDbEntity
8
0
100
AcDbPolyline
90
4
70
1
43
0.0
10
-237.12500000000003
20
18.050000000000029
10
-239.125
20
18.050000000000029
42
-0.99999999999999989
10
-239.125
20
19.050000000000033
10
-237.12500000000003
20
19.050000000000033
42
-0.99999999999999989
0
LWPOLYLINE
5
156
100
AcDbEntity
8
0
100
AcDbPolyline
90
4
70
1
43
0.0
10
-21.620272862794621
20
95.25321208442044
10
-23.620262461647815
20
95.246761931011775
42
-0.99999999999999989
10
-23.623487538352141
20
96.246756730438307
10
-21.623497950035592
20
96.253206883812922
42
-1.0000000105367122
0
LWPOLYLINE
5
157
100
AcDbEntity
8
0
100
AcDbPolyline
90
8
70
1
43
0.0
10
-40.625
20
73.174999999999983
10
-40.625
20
60.174999999999997
42
-0.41421356237309503
10
-41.125
20
59.675000000000004
10
-54.125000000000007
20
59.675000000000004
42
-0.41421356237309503
10
-54.625
20
60.174999999999997
10
-54.625
20
73.174999999999983
42
-0.41421356237310025
10
-54.125000000000007
20
73.674999999999997
10
-41.125
20
73.674999999999997
42
-0.41421356237310025
0
LWPOLYLINE
5
158
100
AcDbEntity
8
0
100
AcDbPolyline
90
24
70
1
43
0.0
10
-2.6120000000000054
20
75.674999999999997
10
-2.6120000000000001
20
57.674999999999997
42
-0.41421356237309309
10
-3.1119999999999948
20
57.175000000000004
10
-10.112000000000005
20
57.175000000000004
42
-0.41421356237309243
10
-10.612000000000002
20
57.674999999999997
10
-10.612000000000002
20
59.175000000000004
42
0.41421356237309503
10
-11.112000000000002
20
59.675000000000004
10
-26.988000000000014
20
59.675000000000004
42
0.41421356237309243
10
-27.488000000000007
20
59.175000000000004
10
-27.488000000000007
20
57.674999999999997
42
-0.41421356237309503
10
-27.988000000000003
20
57.175000000000004
10
-34.988
20
57.174999999999997
42
-0.41421356237309503
10
-35.488000000000007
20
57.674999999999997
10
-35.488000000000007
20
75.674999999999997
42
-0.41421356237309503
10
-34.988000000000007
20
76.174999999999997
10
-27.988000000000007
20
76.174999999999997
42
-0.41421356237309764
10
-27.488000000000007
20
75.674999999999997
10
-27.488000000000007
20
74.174999999999997
42
0.41421356237309764
10
-26.988000000000003
20
73.674999999999997
10
-11.112000000000002
20
73.674999999999997
42
0.41421356237309503
10
-10.612000000000002
20
74.174999999999997
10
-10.611999999999998
20
75.674999999999983
42
-0.41421356237309764
10
-10.111999999999997
20
76.174999999999997
10
-3.1120000000000037
20
76.174999999999997
42
-0.41421356237309764
0
LWPOLYLINE
5
159
100
AcDbEntity
8
0
100
AcDbPolyline
90
16
70
1
43
0.0
10
-123.06250000000003
20
75.724999999999994
10
-123.06250000000003
20
78.324999999999989
42
0.41421356237309503
10
-123.46250000000001
20
78.724999999999994
10
-133.71250000000003
20
78.724999999999994
42
0.41421356237310153
10
-134.11250000000001
20
78.324999999999974
10
-134.11249999999998
20
75.725000000000009
42
-0.41421356237310025
10
-134.61250000000001
20
75.224999999999994
10
-141.61250000000001
20
75.224999999999994
42
-0.41421356237309503
10
-142.11250000000004
20
75.724999999999994
10
-142.11250000000004
20
92.22499999999998
42
-0.41421356237309503
10
-141.61250000000001
20
92.724999999999994
10
-115.5625
20
92.724999999999994
42
-0.41421356237309503
10
-115.0625
20
92.22499999999998
10
-115.06249999999997
20
75.724999999999994
42
-0.41421356237309503
10
-115.56249999999999
20
75.224999999999994
10
-122.56250000000001
20
75.224999999999994
42
-0.41421356237309503
0
LWPOLYLINE
5
160
100
AcDbEntity
8
0
100
AcDbPolyline
90
138
70
1
43
0.0
10
-23.621874999999989
20
99.244999999999976
42
0.41421356237309764
10
-24.121874999999989
20
99.74499999999999
10
-24.621874999999982
20
99.745000000000005
42
0.41421356237309503
10
-25.621874999999982
20
98.745000000000005
10
-25.621874999999974
20
96.75
42
-0.41421356237309503
10
-27.121874999999982
20
95.25
10
-66.306250000000006
20
95.25
42
-0.41421356237309503
10
-67.806250000000006
20
96.75
10
-67.806250000000006
20
98.745000000000005
42
0.41421356237309503
10
-68.806250000000006
20
99.745000000000005
10
-69.306250000000006
20
99.745000000000005
42
0.41421356237309503
10
-69.806250000000006
20
99.244999999999976
10
-69.806250000000006
20
98.745000000000005
42
-0.99999999999999989
10
-71.806249999999991
20
98.745000000000005
10
-71.806249999999991
20
99.244999999999976
42
0.41421356237309503
10
-72.306249999999991
20
99.74499999999999
10
-72.806249999999991
20
99.745000000000005
42
0.41421356237309503
10
-73.806249999999977
20
98.745000000000005
10
-73.806249999999977
20
96.75
42
-0.32794121455328301
10
-74.858333333333334
20
95.318437685700616
42
0.32794121455328257
10
-76.962500000000006
20
92.455313057101847
10
-76.962500000000006
20
75.724999999999994
42
-0.41421356237309503
10
-77.46250000000002
20
75.224999999999994
10
-84.462499999999991
20
75.224999999999994
42
-0.41421356237309503
10
-84.962500000000006
20
75.724999999999994
10
-84.962500000000034
20
92.249999999999972
42
0.41421356237309503
10
-87.96250000000002
20
95.249999999999986
10
-169.21250000000001
20
95.25
42
0.41421356237309503
10
-172.21250000000001
20
92.25
10
-172.21250000000001
20
75.724999999999994
42
-0.41421356237309503
10
-172.71250000000003
20
75.224999999999994
10
-179.71250000000001
20
75.224999999999994
42
-0.41421356237309503
10
-180.21250000000003
20
75.724999999999994
10
-180.21250000000003
20
92.455313057101819
42
0.32794121455328462
10
-182.31666666666672
20
95.31843768570063
42
-0.32794121455328462
10
-183.36875000000006
20
96.75
10
-183.36875000000006
20
98.745000000000005
42
0.41421356237309503
10
-184.36875000000009
20
99.745000000000005
10
-184.86875000000003
20
99.745000000000005
42
0.41421356237309503
10
-185.36875000000006
20
99.244999999999976
10
-185.36875000000006
20
98.745000000000005
42
-0.99999999999999989
10
-187.36875000000001
20
98.745000000000005
10
-187.36875000000001
20
99.244999999999976
42
0.41421356237309503
10
-187.86875000000003
20
99.74499999999999
10
-188.36874999999998
20
99.745000000000005
42
0.41421356237309503
10
-189.36875000000001
20
98.745000000000005
10
-189.36875000000001
20
96.75
42
-0.41421356237309503
10
-190.86874999999998
20
95.25
10
-230.05312500000005
20
95.250000000000028
42
-0.41421356237309503
10
-231.55312500000005
20
96.75
10
-231.55312500000008
20
98.745000000000005
42
0.41421356237309503
10
-232.55312500000005
20
99.745000000000005
10
-233.05312500000002
20
99.745000000000005
42
0.41421356237309503
10
-233.55312500000002
20
99.244999999999976
10
-233.55312500000002
20
98.745000000000005
42
-0.99999999999999989
10
-235.55312499999999
20
98.745000000000005
10
-235.55312499999999
20
99.244999999999976
42
0.41421356237309503
10
-236.05312499999999
20
99.74499999999999
10
-236.55312499999997
20
99.745000000000005
42
0.41421356237309503
10
-237.55312499999999
20
98.745000000000005
10
-237.55312499999997
20
96.75
42
-0.41421356237309503
10
-239.05312499999997
20
95.25
10
-256.17499999999995
20
95.25
42
0.41421356237310025
10
-257.17500000000001
20
94.25
10
-257.17500000000001
20
20.050000000000008
42
0.41421356237309115
10
-256.17500000000001
20
19.050000000000008
10
-242.62499999999994
20
19.04999999999999
42
-0.41421356237309503
10
-241.12499999999997
20
17.550000000000004
10
-241.12499999999997
20
15.555000000000007
42
0.41421356237309503
10
-240.12499999999994
20
14.555000000000007
10
-239.62500000000003
20
14.555000000000007
42
0.41421356237309503
10
-239.125
20
15.05500000000001
10
-239.125
20
15.555000000000007
42
-0.99999999999999989
10
-237.125
20
15.555000000000007
10
-237.125
20
15.05500000000001
42
0.41421356237309503
10
-236.62499999999997
20
14.555000000000009
10
-236.12500000000006
20
14.555000000000009
42
0.41421356237309503
10
-235.12500000000003
20
15.555000000000007
10
-235.12500000000003
20
17.550000000000004
42
-0.41421356237309503
10
-233.62500000000006
20
19.050000000000004
10
-166.42499999999998
20
19.04999999999999
42
-0.41421356237309503
10
-164.92500000000001
20
17.550000000000004
10
-164.92500000000001
20
15.555000000000005
42
0.41421356237309503
10
-163.92499999999998
20
14.555000000000007
10
-163.42500000000001
20
14.555000000000005
42
0.41421356237309503
10
-162.92500000000001
20
15.055000000000005
10
-162.92500000000001
20
15.555000000000005
42
-0.99999999999999989
10
-160.92500000000004
20
15.555000000000005
10
-160.92500000000004
20
15.055000000000005
42
0.41421356237309503
10
-160.42500000000004
20
14.555000000000005
10
-159.92500000000001
20
14.555000000000003
42
0.41421356237309503
10
-158.92500000000001
20
15.555000000000005
10
-158.92500000000001
20
17.550000000000004
42
-0.41421356237309503
10
-157.42500000000001
20
19.050000000000004
10
-115.30000000000001
20
19.050000000000004
42
-0.41421356237309698
10
-114.30000000000001
20
18.050000000000001
10
-114.30000000000001
20
1.0000000000000009
42
0.41421356237310236
10
-113.3
20
-2.9143354396410359e-15
10
-99.750000000000014
20
1.1102230246251565e-15
42
-0.41421356237309531
10
-98.250000000000014
20
-1.5000000000000036
10
-98.250000000000028
20
-3.4950000000000081
42
0.41421356237309537
10
-97.250000000000014
20
-4.495000000000009
10
-96.75
20
-4.4950000000000081
42
0.41421356237309503
10
-96.25
20
-3.9950000000000099
10
-96.25
20
-3.495000000000009
42
-0.99999999999999989
10
-94.25
20
-3.495000000000009
10
-94.25
20
-3.9950000000000099
42
0.41421356237309503
10
-93.75
20
-4.4950000000000099
10
-93.25
20
-4.4950000000000081
42
0.41421356237309503
10
-92.25
20
-3.495000000000009
10
-92.25
20
-1.5000000000000038
42
-0.41421356237309531
10
-90.75
20
-2.2204460492503131e-15
10
-23.550000000000004
20
-1.6653345369377348e-15
42
-0.4142135623730947
10
-22.050000000000004
20
-1.4999999999999991
10
-22.050000000000001
20
-3.4949999999999992
42
0.41421356237309664
10
-21.049999999999997
20
-4.4950000000000001
10
-20.550000000000004
20
-4.4950000000000081
42
0.41421356237309764
10
-20.050000000000004
20
-3.995000000000001
10
-20.049999999999997
20
-3.4950000000000019
42
-0.99999999999999989
10
-18.050000000000001
20
-3.495000000000001
10
-18.050000000000001
20
-3.995000000000001
42
0.41421356237309503
10
-17.549999999999997
20
-4.495000000000001
10
-17.050000000000001
20
-4.4950000000000081
42
0.41421356237309503
10
-16.050000000000001
20
-3.4950000000000014
10
-16.050000000000001
20
-1.4999999999999993
42
-0.41421356237309476
10
-14.550000000000001
20
-2.7755575615628914e-16
10
-0.99999999999999645
20
0
42
0.41421356237309309
10
0
20
0.99999999999999645
10
0
20
94.25
42
0.41421356237309503
10
-1
20
95.25
10
-18.12187500000001
20
95.25
42
-0.41421356237309503
10
-19.62187500000001
20
96.75
10
-19.621875000000006
20
98.745000000000005
42
0.41421356237309503
10
-20.62187500000001
20
99.745000000000005
10
-21.121875000000003
20
99.745000000000005
42
0.41421356237309764
10
-21.621875000000003
20
99.244999999999976
10
-21.621875000000003
20
98.745000000000005
42
-0.99999999999999989
10
-23.621874999999989
20
98.745000000000005
0
ENDSEC
0
SECTION
2
OBJECTS
0
DICTIONARY
5
C
100
AcDbDictionary
3
ACAD_GROUP
350
D
3
ACAD_MLINESTYLE
350
17
0
DICTIONARY
5
D
100
AcDbDictionary
0
DICTIONARY
5
1A
330
C
100
AcDbDictionary
0
DICTIONARY
5
17
100
AcDbDictionary
0
ENDSEC
0
EOF
